<svg xmlns="http://www.w3.org/2000/svg" viewBox="0 0 1000 300"><path d="M999.99975,26.5492h-189.71c-23.934,0-33.93971,6.3104-33.31436,31.95V232.46161h190.108c23.36553,0,32.97328-7.22,32.91644-29.96021Z" style="fill:#acc53f;fill-rule:evenodd"/><path d="M972.48411,46.16248H920.35226c-24.21829,0-32.57535,6.25357-32.00684,31.49522v46.16266H940.591c24.332,0,31.83626-6.59467,31.83626-30.69931V46.16248Z" style="fill:#713e3b;fill-rule:evenodd"/><path d="M50.99487,132.97328c-4.71859,0-10.06253.2274-14.38316.62536a2.19665,2.19665,0,0,0-2.44458,2.274v73.96247c0,1.25071.79591,1.87605,2.04662,2.274A130.34739,130.34739,0,0,0,49.801,213.13245c18.93121,0,32.29107-10.68788,32.29107-40.307-.05685-29.1643-10.74474-39.85219-31.09721-39.85219Zm5.34395,100.05683a105.93789,105.93789,0,0,1-20.12507-2.672c-1.42126,0-1.87607.398-1.87607,2.04662v36.55486a2.41547,2.41547,0,0,1-2.44457,2.44457L2.274,273.4508A2.32321,2.32321,0,0,1,0,271.00623V121.88744a3.62606,3.62606,0,0,1,3.06993-3.46789c15.40647-2.274,38.033-5.11654,53.43944-5.11654,39.68163,0,60.20464,18.07845,60.20464,57.53267C116.77087,212.27969,92.72312,233.03011,56.33882,233.03011Z" style="fill:#713e3b;fill-rule:evenodd"/><path d="M172.71173,232.00679H142.46728c-1.42127,0-1.87606-.62536-1.87606-2.04662V76.23651c0-1.25071.398-1.87606,1.87606-2.274l30.017-2.04661c1.42126,0,2.274.62535,2.274,2.04661V229.96017C174.75834,231.38143,174.36039,232.00679,172.71173,232.00679Z" style="fill:#713e3b;fill-rule:evenodd"/><path d="M276.29327,176.74815c0-1.25072-.398-1.64866-2.04662-1.64866H258.61278c-16.25924,0-24.84367,3.92268-24.84367,18.07844,0,15.17908,8.81183,19.95452,24.84367,19.95452h15.40648c1.87605,0,2.274-.62536,2.274-2.04662V176.74815Zm33.71234,50.3695c0,1.42126-.398,2.44456-2.44456,2.89938-15.63388,1.876-34.963,4.548-52.64354,4.548-32.46162,0-55.71346-8.81182-55.71346-40.307,0-30.813,22.62648-38.20351,48.72084-38.20351,8.01592,0,21.37578,1.42126,27.97044,2.274,0-18.4764-7.22-25.867-30.813-25.867-7.78852,0-18.4764.7959-27.34508,1.42126h-.62536c-1.42126,0-1.876-.62536-2.274-1.87607l-1.87606-14.78112v-.398c0-.7959.62536-1.25071,1.64866-1.64866,10.68788-1.25071,28.59578-2.44457,41.72824-2.44457,32.689,0,53.66685,11.7112,53.66685,44.57076Z" style="fill:#713e3b;fill-rule:evenodd"/><path d="M456.96407,232.00679H426.71962c-1.42127,0-2.04661-.62536-2.04661-2.04662V159.46559c0-18.93121-7.22-26.49232-26.09438-26.49232H379.64744c-1.25072,0-1.81923.39795-1.81923,2.04662v94.94028c0,1.42126-.398,2.04662-2.0466,2.04662h-30.017c-1.42126,0-2.0466-.62536-2.0466-2.04662V121.03468c0-1.64866.62534-2.44457,1.87606-2.44457,17.05514-2.44457,39.85216-5.57135,58.556-5.57135,38.65832,0,54.69016,15.63388,54.69016,50.14211v66.7993C458.78329,231.38143,458.38533,232.00679,456.96407,232.00679Z" style="fill:#713e3b;fill-rule:evenodd"/><path d="M540.19314,132.12052c-18.70382,0-22.62648,13.98522-22.62648,30.64241,0,1.87606.398,2.274,1.87606,2.274h40.8755c1.42126,0,2.274-.2274,2.274-2.04662,0-17.05514-3.29732-30.86981-22.39909-30.86981Zm55.486,51.22227H520.46605c-1.25072,0-1.87606.2274-1.87606,1.87606,0,21.77372,11.9386,28.59577,35.98634,28.59577a262.74924,262.74924,0,0,0,26.71972-1.876h.62534c.79592,0,1.42127.22739,1.42127,1.64866v.398l-2.04661,15.80442c-.39792,1.64866-1.02333,1.64866-2.274,2.04662a274.52914,274.52914,0,0,1-34.33769,2.672c-36.55485,0-62.87661-13.35986-62.87661-61.0574,0-41.10289,22.3991-60.83,58.556-60.83,44.79819,0,57.36213,23.6498,57.36213,68.448C597.72585,182.71745,596.92993,183.34279,595.67918,183.34279Z" style="fill:#713e3b;fill-rule:evenodd"/><path d="M678.1114,131.32462c-19.49974,0-26.4923,11.48379-26.4923,42.979,0,29.78964,7.618,40.87548,26.4923,40.87548,19.32916,0,26.32179-11.4838,26.32179-40.87548-.05683-31.66571-6.99263-42.97895-26.32179-42.97895Zm0,102.95619c-38.20349,0-60.83-20.12506-60.83-59.80668,0-43.1495,24.04778-61.68276,60.83-61.68276S738.714,130.86982,738.714,174.47413C738.71405,213.92835,716.315,234.28081,678.1114,234.28081Z" style="fill:#713e3b;fill-rule:evenodd"/><path d="M720.36053,92.87893a17.63025,17.63025,0,1,1,17.62971-17.63024A17.65005,17.65005,0,0,1,720.36053,92.87893Zm0-30.91172a13.28148,13.28148,0,1,0,13.28095,13.28148A13.29664,13.29664,0,0,0,720.36053,61.96721Z" style="fill:#713e3b"/><path d="M727.146,82.34307c0,.10593-.06369.14882-.17027.14882h-3.60031c-.12737,0-.19106-.06368-.29764-.19171l-2.81266-4.45229c-.06369-.08514-.10658-.19172-.234-.19172l-1.89633.0208c-.10658,0-.17027.04289-.17027.17092l.0208,4.43085a.19076.19076,0,0,1-.21316.21315h-3.1519c-.12867,0-.19236-.08513-.19236-.2346V68.23948c0-.17027.08578-.234.19236-.234H720.798c3.53662,0,5.7306,1.36344,5.7306,4.53743a4.39749,4.39749,0,0,1-2.87635,4.51664c.93712,1.40568,3.47293,5.1769,3.47293,5.1769A.23571.23571,0,0,1,727.146,82.34307Zm-6.96536-12.42042h-2.04581a.15172.15172,0,0,0-.17027.14948v5.55968c0,.128.04289.17092.19106.17092h1.81186c1.83135,0,2.91794-.95857,2.91794-3.08951C722.88541,70.92411,722.03407,69.92265,720.18063,69.92265Z" style="fill:#713e3b"/></svg>